<?xml version="1.0" standalone="no"?>
<!DOCTYPE svg PUBLIC "-//W3C//DTD SVG 20010904//EN"
 "http://www.w3.org/TR/2001/REC-SVG-20010904/DTD/svg10.dtd">
<svg version="1.0" xmlns="http://www.w3.org/2000/svg"
 width="512.000000pt" height="512.000000pt" viewBox="0 0 512.000000 512.000000"
 preserveAspectRatio="xMidYMid meet">
<metadata>
Created by potrace 1.14, written by Peter Selinger 2001-2017
</metadata>
<g transform="translate(0.000000,512.000000) scale(0.100000,-0.100000)"
fill="#000000" stroke="none">
<path d="M2525 4569 c-470 -24 -940 -186 -1295 -447 -351 -258 -597 -623 -675
-998 -82 -399 -4 -786 229 -1137 51 -77 98 -132 219 -263 l29 -32 -421 -618
c-232 -339 -419 -619 -417 -621 2 -2 366 170 810 383 l806 386 77 -26 c186
-61 423 -104 646 -115 702 -37 1370 198 1817 639 257 253 408 534 466 865 21
119 20 352 -1 472 -57 332 -204 609 -458 865 -442 447 -1114 684 -1832 647z
m520 -373 c438 -80 776 -243 1047 -504 198 -191 326 -419 372 -662 21 -107 21
-313 0 -420 -41 -220 -153 -427 -328 -609 -275 -284 -630 -462 -1091 -547 -81
-15 -151 -19 -365 -19 -234 0 -280 3 -394 23 -149 27 -260 57 -397 108 l-96
36 -284 -136 c-155 -75 -287 -136 -291 -136 -5 0 57 96 136 214 l145 213 -97
81 c-200 165 -321 311 -416 499 -188 376 -137 833 133 1193 100 133 298 308
458 403 222 134 545 242 825 276 117 15 538 6 643 -13z"/>
<path d="M1080 2866 l0 -306 90 0 90 0 0 94 0 94 53 6 c110 14 127 18 171 46
93 59 120 201 55 292 -41 57 -93 71 -286 76 l-173 5 0 -307z m283 146 c22 -19
22 -79 0 -104 -11 -12 -30 -18 -60 -18 l-43 0 0 69 c0 58 3 70 18 74 25 6 64
-3 85 -21z"/>
<path d="M1952 3153 c3 -10 35 -147 73 -305 l68 -288 103 0 103 0 11 38 c6 20
31 111 55 202 24 91 44 154 45 140 0 -14 20 -104 43 -200 l43 -175 98 0 99 0
77 303 78 302 -93 0 -92 0 -29 -210 -29 -209 -44 209 -44 210 -99 0 c-116 0
-97 27 -159 -222 -24 -98 -46 -178 -49 -178 -3 0 -16 80 -29 178 -12 97 -25
187 -28 200 -5 21 -10 22 -105 22 -91 0 -100 -2 -96 -17z"/>
<path d="M3065 3158 c-3 -7 -48 -139 -101 -293 -53 -154 -99 -286 -101 -292
-4 -10 19 -13 94 -13 l100 0 14 53 14 52 92 3 91 3 13 -56 12 -55 99 0 c54 0
98 3 98 6 0 4 -44 141 -97 305 l-97 299 -113 0 c-82 0 -115 -3 -118 -12z m139
-241 c14 -60 26 -110 26 -113 0 -2 -25 -4 -56 -4 -49 0 -56 2 -52 18 3 9 16
61 29 114 13 53 25 96 25 95 1 -1 14 -51 28 -110z"/>
<path d="M3560 2865 l0 -305 80 0 80 0 1 228 1 227 17 -75 c10 -41 36 -144 57
-227 l38 -153 88 0 c74 0 87 3 92 18 4 15 87 363 99 417 3 11 5 -82 6 -207 l1
-228 90 0 90 0 0 305 0 305 -135 0 -134 0 -9 -32 c-5 -18 -26 -111 -48 -207
-21 -95 -40 -165 -42 -155 -1 11 -23 103 -49 207 l-45 187 -139 0 -139 0 0
-305z"/>
<path d="M1650 2790 l0 -60 115 0 115 0 0 60 0 60 -115 0 -115 0 0 -60z"/>
</g>
</svg>
